#!OML:ASF F:\VICON\USERDATA\INSTALL\rory3\rory3.ASF
:FULLY-SPECIFIED
:DEGREES
380
root -4.38009 16.5994 -24.8616 190.867 -13.8993 -537.355
lowerback -8.22145 1.41295 7.62271
upperback -5.22367 0.787271 2.70447
thorax -0.741862 0.00677421 -1.40518
lowerneck -12.5588 -3.53886 -8.62397
upperneck 25.4201 -5.77115 5.5446
head 10.6252 -3.31452 2.61323
rclavicle 3.15074e-014 5.56597e-015
rhumerus -31.2452 32.8798 -106.364
rradius 41.2736
rwrist 14.8415
rhand -20.0733 -41.932
rfingers 7.12502
rthumb 6.26908 -71.8192
lclavicle 3.15074e-014 5.56597e-015
lhumerus -44.1441 -5.50983 76.8858
lradius 51.3122
lwrist 8.34633
lhand -33.1566 330.258
lfingers 7.12502
lthumb -6.36536 0.142575
rfemur -20.4533 18.6312 34.8032
rtibia 43.4322
rfoot -24.2749 6.12103
rtoes 15.8452
lfemur -48.1116 -10.4311 -11.825
ltibia 73.5204
lfoot -24.0065 18.0305
ltoes -8.82372
381
root -4.386 16.641 -24.9826 191.02 -12.5082 -537.318
lowerback -7.59621 1.63524 7.93905
upperback -5.35495 1.13016 2.61178
thorax -1.19178 0.147732 -1.6581
lowerneck -12.8606 -3.63527 -8.54432
upperneck 25.6728 -5.87563 5.31922
head 10.7779 -3.38371 2.49859
rclavicle -2.60408e-014 -1.82882e-014
rhumerus -31.3445 33.4243 -107.069
rradius 41.3368
rwrist 15.6616
rhand -19.0103 -42.0811
rfingers 7.12502
rthumb 7.29522 -71.9353
lclavicle -2.60408e-014 -1.82882e-014
lhumerus -45.2834 -6.23579 77.673
lradius 50.7945
lwrist 9.44968
lhand -32.547 328.947
lfingers 7.12502
lthumb -5.77689 -1.15125
rfemur -19.724 18.7487 34.7993
rtibia 42.9684
rfoot -24.2667 7.00955
rtoes 15.8101
lfemur -49.4805 -10.5122 -11.7102
ltibia 72.5923
lfoot -23.7907 16.5097
ltoes -8.21107
382
root -4.41105 16.5188 -25.0648 191.24 -10.9402 -537.397
lowerback -7.01594 1.87283 8.12503
upperback -5.49554 1.50038 2.49719
thorax -1.62224 0.304177 -1.86488
lowerneck -13.6534 -3.73199 -8.13303
upperneck 26.3717 -5.9063 4.54165
head 11.1622 -3.45334 2.12681
rclavicle 1.10325e-014 5.24792e-014
rhumerus -31.4504 34.0974 -107.738
rradius 41.1716
rwrist 16.5238
rhand -18.5647 -41.9809
rfingers 7.12502
rthumb 7.72531 -71.8197
lclavicle 1.10325e-014 5.24792e-014
lhumerus -46.2988 -6.72212 78.4648
lradius 50.0944
lwrist 10.406
lhand -31.5338 328.232
lfingers 7.12502
lthumb -4.79858 -1.84239
rfemur -19.4617 19.4546 34.6852
rtibia 42.9375
rfoot -24.1257 7.3815
rtoes 14.9647
lfemur -49.4036 -10.6325 -11.6778
ltibia 71.5246
lfoot -25.0673 15.0461
ltoes -4.87595
383
root -4.41131 16.5963 -25.1962 191.341 -9.21679 -537.296
lowerback -6.42325 2.13252 8.38117
upperback -5.5432 1.89816 2.45925
thorax -1.95789 0.479217 -2.03514
lowerneck -13.9695 -3.66384 -7.95727
upperneck 26.6122 -5.75256 4.18699
head 11.2881 -3.41142 1.98264
rclavicle 1.5704e-014 -3.97569e-015
rhumerus -31.6625 35.5393 -108.66
rradius 40.9534
rwrist 15.9959
rhand -20.1906 -41.1702
rfingers 7.12502
rthumb 6.15582 -71.0608
lclavicle 1.5704e-014 -3.97569e-015
lhumerus -47.0481 -6.90129 79.1602
lradius 48.8064
lwrist 10.9079
lhand -31.016 327.886
lfingers 7.12502
lthumb -4.29855 -2.17733
rfemur -18.5917 20.2949 34.7026
rtibia 42.4479
rfoot -23.8118 8.17687
rtoes 15.5223
lfemur -50.6152 -10.1003 -11.8683
ltibia 70.3718
lfoot -23.508 15.3886
ltoes -6.65327
384
root -4.4395 16.6256 -25.3714 191.478 -7.82332 -537.202
lowerback -7.30767 2.39105 8.91938
upperback -5.09884 2.0936 2.39082
thorax -0.966388 0.614438 -2.36505
lowerneck -13.3204 -3.48369 -8.29968
upperneck 25.7286 -5.49913 4.69217
head 10.8335 -3.25085 2.27451
rclavicle -1.0138e-014 2.38542e-015
rhumerus -31.1042 36.5739 -108.861
rradius 40.8708
rwrist 16.7591
rhand -18.8707 -40.342
rfingers 7.12502
rthumb 7.43 -70.1915
lclavicle -1.0138e-014 2.38542e-015
lhumerus -47.4397 -6.89359 79.7871
lradius 47.6721
lwrist 11.3537
lhand -30.5695 329.056
lfingers 7.12502
lthumb -3.8674 -0.999695
rfemur -17.7166 19.9555 34.6223
rtibia 42.2651
rfoot -24.0442 9.89777
rtoes 16.2712
lfemur -50.9918 -10.0443 -12.0848
ltibia 69.1296
lfoot -23.2802 15.108
ltoes -6.19462
385
root -4.4178 16.5998 -25.4155 191.654 -6.0077 -536.743
lowerback -5.48725 2.69662 9.13735
upperback -5.54493 2.71219 2.49453
thorax -2.37772 0.83723 -2.40091
lowerneck -12.78 -3.38895 -8.44804
upperneck 25.4636 -5.41898 4.82664
head 10.6306 -3.22693 2.36619
rclavicle -1.51076e-014 -4.13472e-014
rhumerus -31.3372 37.2336 -109.462
rradius 40.7757
rwrist 16.93
rhand -18.964 -40.088
rfingers 7.12502
rthumb 7.3399 -69.9407
lclavicle -1.51076e-014 -4.13472e-014
lhumerus -48.5624 -7.18164 80.612
lradius 46.9426
lwrist 11.8972
lhand -31.0109 330.346
lfingers 7.12502
lthumb -4.29365 0.282611
rfemur -17.6052 21.5275 35.0491
rtibia 41.9952
rfoot -22.7883 10.8167
rtoes 17.6397
lfemur -52.2613 -9.11915 -11.5372
ltibia 67.9111
lfoot -22.6236 14.0347
ltoes -7.557
386
root -4.46677 16.6106 -25.5252 191.909 -5.16924 -536.483
lowerback -5.21918 2.78605 10.4042
upperback -5.56245 2.8099 2.33827
thorax -2.48465 0.829765 -3.264
lowerneck -13.6372 -3.44459 -7.94692
upperneck 25.9153 -5.3774 4.13558
head 10.9301 -3.22994 2.02356
rclavicle 1.55797e-014 4.6118e-014
rhumerus -31.1338 37.6507 -109.655
rradius 40.879
rwrist 18.2556
rhand -17.1619 -38.6043
rfingers 7.12502
rthumb 9.07916 -68.3889
lclavicle 1.55797e-014 4.6118e-014
lhumerus -49.2952 -7.19909 81.2521
lradius 45.9506
lwrist 12.3664
lhand -31.0295 330.401
lfingers 7.12502
lthumb -4.31162 0.337011
rfemur -17.1971 20.2779 34.9352
rtibia 41.704
rfoot -22.0221 14.1421
rtoes 22.1609
lfemur -52.873 -9.52502 -11.5076
ltibia 66.4921
lfoot -22.7537 13.5367
ltoes -10.9859
387
root -4.47156 16.6215 -25.665 192.547 -3.44107 -537.282
lowerback -5.79998 3.00233 9.68882
upperback -5.31238 3.06453 2.02847
thorax -1.87517 1.02644 -3.15551
lowerneck -13.7519 -3.51306 -6.51941
upperneck 25.1443 -5.20593 2.39608
head 10.5657 -3.16892 1.18773
rclavicle -2.65874e-014 -4.77083e-015
rhumerus -30.5592 38.4362 -109.775
rradius 41.0344
rwrist 18.4679
rhand -17.1493 -38.1311
rfingers 7.12502
rthumb 9.09132 -67.9151
lclavicle -2.65874e-014 -4.77083e-015
lhumerus -49.5044 -7.06566 81.7451
lradius 44.799
lwrist 12.7355
lhand -30.8338 332.273
lfingers 7.12502
lthumb -4.12269 2.21291
rfemur -17.3016 20.6508 33.6978
rtibia 41.8755
rfoot -21.68 15.061
rtoes 22.9787
lfemur -53.3575 -9.31233 -12.4946
ltibia 64.7761
lfoot -22.5864 12.5222
ltoes -10.7719
